<?xml version="1.0" encoding="UTF-8"?>
<!-- Generated by Pixelmator Pro 3.7 -->
<svg width="227" height="240" viewBox="0 0 227 240" xmlns="http://www.w3.org/2000/svg">
    <path id="Shape" fill="#303b48" fill-rule="evenodd" stroke="none" d="M 23.923586 239 C 22.450302 239 20.652552 238.28627 19.928583 237.413956 C 18.835817 236.097244 18.887928 234.526382 20.235435 228.16394 C 21.128172 223.948776 23.910639 212.251221 26.418695 202.169373 C 30.9788 183.83876 30.9788 183.83876 28.579847 180.669373 C 27.260422 178.926224 26.027693 176.600006 25.840446 175.5 C 25.6532 174.399994 23.101404 170.125 20.169788 166 C 17.238173 161.875 13.09942 154.899994 10.972559 150.5 C 8.845698 146.100006 5.96799 138.550797 4.577653 133.723999 C 3.187315 128.897202 1.515941 121.2472 0.863488 116.723999 C 0.145587 111.747086 -0.090946 103.762039 0.26441 96.5 C 0.687141 87.861099 1.589379 81.979172 3.485635 75.5 C 4.934348 70.550003 7.646631 63.350006 9.512931 59.5 C 11.37923 55.649994 14.824014 49.593414 17.168003 46.040939 C 19.511995 42.488449 24.366436 36.468887 27.955652 32.664124 C 31.54487 28.859375 37.039856 23.777771 40.166737 21.371704 C 43.293613 18.965622 49.355293 15.107346 53.637135 12.797745 C 57.918976 10.488159 64.341515 7.538864 67.909439 6.243774 C 71.477364 4.948685 77.436684 3.249573 81.152374 2.467941 C 84.868057 1.686325 92.091324 0.758545 97.204079 0.406204 C 102.35891 0.05098 110.510666 0.259018 115.503159 0.87323 C 120.454895 1.482422 127.177216 2.676544 130.441666 3.526825 C 133.7061 4.377106 139.005142 6.134323 142.2173 7.431778 C 145.429459 8.729233 150.494659 11.267792 153.473297 13.073044 C 156.45195 14.878296 161.951492 18.991745 165.694519 22.214035 C 169.437531 25.436325 174.842438 30.824295 177.705429 34.187286 C 180.56842 37.550278 184.518524 43.361191 186.483429 47.100433 C 188.448349 50.839661 190.943405 57.368744 192.028 61.609482 C 193.112595 65.85022 194.002365 72.510437 194.005264 76.409958 C 194.009018 81.455933 194.513535 84.273056 195.755264 86.181442 C 196.714874 87.656219 200.875 93.216888 205 98.538483 C 209.125 103.860062 213.268631 109.628418 214.208084 111.35704 C 215.147537 113.08567 215.935028 115.997116 215.958084 117.82692 C 215.987549 120.165817 215.183304 121.962524 213.25 123.876877 C 211.737503 125.374542 207.574997 127.653595 204 128.941437 C 200.425003 130.229294 196.529037 131.877472 195.342316 132.604065 C 193.301254 133.853729 193.214142 134.460541 193.730499 143.831177 C 194.131607 151.110596 193.835892 155.687653 192.615189 161.093079 C 191.701553 165.138794 189.194199 172.084702 187.04332 176.528427 C 183.90831 183.005356 181.555984 186.114243 175.183945 192.202057 C 169.140289 197.976135 164.962769 200.924286 157.753204 204.503296 C 152.538071 207.092239 144.722626 210.059006 140.385574 211.09613 C 136.048508 212.13327 127.099998 213.269867 120.5 213.621902 C 113.577957 213.991135 101.046448 213.719315 90.886086 212.979553 C 73.272171 211.697128 73.272171 211.697128 60.886086 219.044708 C 54.073738 223.085876 43.573013 229.229019 37.55114 232.696136 C 31.52927 236.163269 25.39687 239 23.923586 239 Z M 110.950394 194 C 121.067451 194 121.067451 194 123.02459 190.682892 C 124.101013 188.85849 126.102158 186.313202 127.471565 185.026718 C 129.9207 182.725876 130.199448 182.698456 144.520035 183.349152 C 156.472229 183.892242 159.599472 183.741364 161.98764 182.506393 C 163.587585 181.679031 166.036041 179.508224 167.428696 177.682373 C 168.821335 175.856537 170.644592 172.424484 171.480377 170.055603 C 172.316177 167.686722 173 164.502045 173 162.978516 C 173 160.759949 172.033386 159.588226 168.144653 157.092819 C 165.474197 155.379211 162.488022 153.091766 161.508698 152.009613 C 159.957748 150.295837 159.906845 149.783203 161.114059 148.034729 C 161.876328 146.930664 164.975006 144.201019 168 141.968842 C 171.024994 139.736633 174.512497 137.033463 175.75 135.961761 C 177.100647 134.792084 178 132.87471 178 131.164902 C 178 128.714722 178.55162 128.151306 181.94635 127.134216 C 184.116852 126.483925 186.816849 124.777008 187.94635 123.341072 C 189.075851 121.905136 190 119.648041 190 118.325302 C 190 117.002563 189.137131 114.250748 188.08252 112.210159 C 187.027908 110.169571 184.076157 106.475006 181.523071 104 C 178.969986 101.524994 175.627991 97.616241 174.09642 95.313889 C 171.665482 91.659531 171.228546 89.817612 170.656784 80.813889 C 170.296555 75.141251 169.394241 68.25 168.651642 65.5 C 167.909042 62.75 166.379303 58.597504 165.252228 56.272247 C 164.125153 53.946976 161.560211 49.80658 159.552383 47.07135 C 157.54454 44.336136 153.786377 40.557632 151.200882 38.674683 C 148.615402 36.791733 144.601669 34.292709 142.281479 33.121307 C 139.961304 31.949905 135.236298 30.325043 131.781479 29.510513 C 128.32666 28.695999 122.716919 28.022903 119.315376 28.014786 C 115.913834 28.006653 109.937469 28.671722 106.034569 29.492722 C 102.131668 30.313736 95.603806 32.280273 91.528214 33.862839 C 87.452614 35.445389 81.206413 38.817902 77.647766 41.3573 C 74.089111 43.896698 69.093147 48.342651 66.545616 51.237198 C 63.998081 54.131744 60.170422 59.965118 58.039711 64.200287 C 55.908997 68.43544 53.565907 74.510437 52.832844 77.700287 C 52.099781 80.890121 51.5 87.100006 51.5 91.5 C 51.5 95.899994 52.283596 102.593994 53.241325 106.375549 C 54.199051 110.157089 57.082958 117.807091 59.650002 123.375542 C 62.217045 128.944 65.136131 136.096054 66.136864 139.269012 C 67.137596 142.441956 68.238693 148.516968 68.583755 152.769012 C 68.92881 157.021057 68.741272 163.875 68.167007 168 C 67.592735 172.125 66.811935 178.425003 66.431877 182 C 65.740875 188.5 65.740875 188.5 76.108475 178.129349 C 81.810654 172.425476 91.569679 163.932892 97.795204 159.256927 C 104.020721 154.580948 109.838211 149.65036 110.722954 148.300079 C 111.915726 146.479675 112.092651 145.165619 111.407333 143.216919 C 110.898994 141.771484 108.461891 139.083099 105.991539 137.242737 C 103.521194 135.402374 99.356094 132.089386 96.735764 129.880554 C 94.115433 127.671738 91.028343 124.015724 89.875565 121.756088 C 88.360962 118.787224 87.912743 116.466484 88.259605 113.389153 C 88.523605 111.046967 89.605324 107.638748 90.663422 105.815323 C 91.721527 103.991898 95.492615 100.367294 99.043625 97.760666 C 102.594627 95.154037 107.661209 91.104034 110.302681 88.760666 C 112.944153 86.417297 115.324127 83.600006 115.591499 82.5 C 115.983551 80.8871 114.957237 79.919357 110.288826 77.5 C 105.706184 75.125092 104.435905 73.94606 104.192406 71.841507 C 103.923882 69.520691 105.420105 67.933014 115.972351 59.341507 C 122.620499 53.92868 128.917969 49.359924 129.966751 49.188736 C 131.102448 49.003342 132.472168 49.812164 133.353714 51.188736 C 134.167786 52.45993 137.146072 59.064651 139.972153 65.865906 C 142.898254 72.907867 144.979065 79.365875 144.805237 80.865906 C 144.521561 83.31395 144.110626 83.520676 138.987076 83.792831 C 133.474152 84.085663 133.474152 84.085663 130.487076 89.634628 C 128.844193 92.686554 125.641281 96.901978 123.369507 99.002228 C 121.09774 101.102478 116.681908 104.518692 113.556549 106.593826 C 110.43119 108.668945 107.436577 111.18425 106.901855 112.18338 C 106.265213 113.372963 106.28112 114.656761 106.947952 115.902756 C 107.508034 116.949265 111.509789 119.849403 115.840744 122.347496 C 120.171692 124.845589 125.19265 128.13266 126.998413 129.65213 C 128.804184 131.17157 131.116577 133.783936 132.13707 135.457382 C 133.157578 137.130829 133.975342 140.074997 133.954346 142 C 133.93335 143.925003 133.147537 146.911865 132.208084 148.637451 C 131.268631 150.363068 126.847504 156.438049 122.383347 162.137451 C 117.919189 167.836853 111.394188 176.967102 107.883347 182.42688 C 104.372505 187.886658 101.349998 192.724152 101.166664 193.17688 C 100.98333 193.629593 105.386009 194 110.950394 194 Z M 200.555847 190.340195 C 199.875381 190.601318 198.741669 190.458374 198.036484 190.022552 C 197.226501 189.521942 196.934845 187.990891 197.244537 185.865067 C 197.51416 184.014282 198.850815 179.350006 200.21489 175.5 C 201.578964 171.649994 203.705688 164.449997 204.940948 159.5 C 206.176208 154.550003 207.58519 149.487503 208.072006 148.25 C 208.558823 147.012497 209.811676 146 210.85611 146 C 211.900558 146 213.305862 146.663605 213.978989 147.474686 C 214.918472 148.606689 214.95578 150.785461 214.139526 156.850662 C 213.554688 161.196381 211.939255 167.772491 210.549667 171.464279 C 209.16008 175.156067 206.621384 180.80658 204.908112 184.021011 C 203.194839 187.235443 201.236328 190.079071 200.555847 190.340195 Z M 217.549866 189 C 216.832123 189 215.662018 188.297684 214.949615 187.439301 C 213.87233 186.141235 214.037842 185.00531 215.933151 180.689301 C 217.186493 177.83519 219.246979 172.350006 220.512009 168.5 C 222.490555 162.478424 223.139664 161.5 225.156021 161.5 C 227.372025 161.5 227.485931 161.812988 227.242432 167.232727 C 227.100754 170.385742 226.069901 175.410889 224.95163 178.399734 C 223.833359 181.38858 222.004105 184.996368 220.886627 186.417007 C 219.769135 187.837646 218.267593 189 217.549866 189 Z"/>
    <path id="path1" fill="#ffffff" fill-rule="evenodd" stroke="none" d="M 112.759789 193.921051 C 108.766907 193.877625 104.824997 193.591034 104 193.284149 C 103.175003 192.977264 102.340736 192.591034 102.146088 192.425842 C 101.951431 192.260651 104.372284 188.15976 107.525749 183.312744 C 110.679214 178.465744 116.46347 170.291168 120.379662 165.147034 C 124.295845 160.002899 128.798721 153.98761 130.386063 151.779724 C 132.060684 149.450409 133.471634 145.99527 133.747437 143.548401 C 134.050934 140.855804 133.663666 138.250275 132.676117 136.340561 C 131.825455 134.695587 129.3965 131.784058 127.278404 129.870483 C 125.160316 127.956924 120.743683 124.884857 117.463669 123.043671 C 114.183647 121.202484 110.468788 118.768425 109.208412 117.634644 C 107.943161 116.496483 107.047417 114.681084 107.208412 113.581268 C 107.368782 112.485687 109.525002 110.089447 112 108.256287 C 114.474998 106.423126 118.855118 102.89389 121.733589 100.413544 C 124.612068 97.933197 128.463425 93.337967 130.292175 90.201904 C 133.580627 84.562668 133.675873 84.494507 138.956894 84 C 142.224243 83.694046 144.66864 82.905716 145.255219 81.968735 C 145.945541 80.866028 144.891998 77.227783 141.490738 68.968735 C 138.893051 62.660934 135.870377 55.587494 134.773697 53.25 C 133.329376 50.171494 132.182602 49 130.613403 49 C 129.421906 49 125.308968 51.493713 121.473526 54.541595 C 117.638084 57.589462 112.137497 62.115402 109.25 64.599228 C 105.763016 67.598724 104 69.883392 104 71.402649 C 104 72.660706 104.787498 74.340057 105.75 75.134521 C 106.712502 75.929001 109.236855 77.365005 111.359673 78.325638 C 114.737862 79.854355 115.154839 80.409668 114.702271 82.77713 C 114.417885 84.264816 112.68103 86.760025 110.842598 88.322021 C 109.004173 89.884018 105.546074 92.525681 103.157951 94.192383 C 100.769821 95.859085 97.255806 98.592529 95.349037 100.266693 C 93.442261 101.940857 91.008682 105.022812 89.941086 107.115479 C 88.873489 109.208145 88 112.527702 88 114.492279 C 88 116.456856 88.610527 119.512283 89.356735 121.28212 C 90.102936 123.051956 92.915604 126.525002 95.607101 129 C 98.298599 131.475006 102.607674 135.074997 105.182823 137 C 107.757965 138.925003 110.346825 141.537018 110.935844 142.804489 C 111.726616 144.506104 111.674782 145.742615 110.737709 147.531082 C 110.039719 148.863251 105.9786 152.62915 101.713005 155.89978 C 97.447403 159.17041 90.311577 164.918427 85.855606 168.673187 C 81.399643 172.427933 75.83165 177.633423 73.4823 180.240952 C 71.13295 182.848465 68.437744 185.278534 67.49295 185.641083 C 66.044228 186.197006 65.865463 185.845978 66.351738 183.400131 C 66.668869 181.805054 67.48381 175.196884 68.16272 168.715286 C 69.118561 159.589874 69.13295 155.118195 68.226479 148.898941 C 67.551559 144.268311 65.520844 137.190186 63.430862 132.183655 C 61.437115 127.407639 58.201694 119.449997 56.241043 114.5 C 53.049442 106.442276 52.627972 104.271439 52.215408 93.765533 C 51.798328 83.144623 52.004585 81.229279 54.388889 73.581985 C 56.080273 68.15712 58.841442 62.414368 62.103069 57.537827 C 65.068962 53.103455 69.745842 47.849792 73.341484 44.913437 C 76.728668 42.147308 83.099998 38.128098 87.5 35.981857 C 91.900002 33.835602 98.444168 31.398499 102.042595 30.566055 C 105.641029 29.733612 111.716026 28.773682 115.542595 28.432877 C 120.261253 28.012619 124.905739 28.323837 129.976364 29.400024 C 134.088364 30.272751 139.847275 32.15834 142.773956 33.59024 C 145.700638 35.022125 150.66127 38.578369 153.797592 41.493011 C 156.933914 44.407654 161.027573 49.330811 162.894592 52.43335 C 164.761612 55.535904 167.059143 60.870117 168.000198 64.28717 C 168.941254 67.704224 170.030838 75 170.421494 80.5 C 170.934708 87.725449 171.688248 91.451233 173.137421 93.928391 C 174.240509 95.813995 178.033432 100.478653 181.566101 104.294266 C 185.31105 108.339157 188.454086 112.783546 189.104218 114.953514 C 190.010925 117.979828 189.924576 119.245163 188.642136 121.725143 C 187.604584 123.731537 185.515533 125.412239 182.53624 126.637505 C 179.109375 128.046844 178.006592 129.033875 178.003754 130.694244 C 178.001694 131.901062 176.987503 133.99057 175.75 135.33757 C 174.512497 136.68457 170.888214 139.666809 167.696014 141.964752 C 164.50383 144.262695 161.37001 147.288574 160.731979 148.688904 C 159.734619 150.877869 159.862122 151.463898 161.641068 152.867462 C 162.779099 153.765366 165.853439 155.990601 168.472931 157.812439 C 173.116867 161.042267 173.219574 161.225372 172.591339 165.154205 C 172.236954 167.370331 170.998138 171.043488 169.838394 173.316772 C 168.67865 175.590057 166.39299 178.698761 164.759125 180.225006 C 161.788483 183 161.788483 183 145.497833 183 C 129.207184 183 129.207184 183 126.353592 186.357269 C 124.784119 188.203751 122.716904 190.678757 121.759789 191.857269 C 120.257408 193.707153 119.027382 193.989212 112.759789 193.921051 Z"/>
</svg>
